<?xml version="1.0" encoding="UTF-8"?>
<!DOCTYPE svg PUBLIC "-//W3C//DTD SVG 1.1//EN" "http://www.w3.org/Graphics/SVG/1.1/DTD/svg11.dtd">
<svg xmlns="http://www.w3.org/2000/svg" version="1.1" width="453px" height="108px" style="shape-rendering:geometricPrecision; text-rendering:geometricPrecision; image-rendering:optimizeQuality; fill-rule:evenodd; clip-rule:evenodd" xmlns:xlink="http://www.w3.org/1999/xlink">
<g><path style="opacity:1" fill="#101010" d="M 403.5,10.5 C 403.427,12.0269 404.094,13.0269 405.5,13.5C 406.117,13.6107 406.617,13.944 407,14.5C 409.174,20.9613 407.174,25.2946 401,27.5C 394.974,26.418 392.808,23.0846 394.5,17.5C 396.382,16.779 396.715,15.779 395.5,14.5C 392.265,15.595 390.432,17.9283 390,21.5C 389.527,25.6118 390.027,29.6118 391.5,33.5C 394.287,34.4767 397.287,34.81 400.5,34.5C 400.5,35.8333 400.5,37.1667 400.5,38.5C 400.5,38.8333 400.5,39.1667 400.5,39.5C 397.855,41.2419 394.855,41.9086 391.5,41.5C 391.172,52.3464 391.506,63.0131 392.5,73.5C 394.698,75.3969 397.364,76.3969 400.5,76.5C 400.714,78.1439 400.38,79.6439 399.5,81C 390.588,81.8163 381.755,81.6497 373,80.5C 372.833,79.8333 372.667,79.1667 372.5,78.5C 374.366,76.8051 375.866,74.8051 377,72.5C 377.5,62.5056 377.666,52.5056 377.5,42.5C 376.081,41.5489 374.415,41.2155 372.5,41.5C 372.5,39.8333 372.5,38.1667 372.5,36.5C 373.261,35.6091 374.261,34.9424 375.5,34.5C 376.135,28.4508 376.968,22.4508 378,16.5C 378.996,14.3395 380.496,12.6728 382.5,11.5C 384.027,11.573 385.027,10.9063 385.5,9.5C 391.728,6.60173 397.728,6.93506 403.5,10.5 Z"/></g>
<g><path style="opacity:1" fill="#66d295" d="M 185.5,9.5 C 195.157,8.65772 198.99,12.9911 197,22.5C 192.14,28.7301 186.806,29.0635 181,23.5C 178.606,17.5175 180.106,12.8508 185.5,9.5 Z"/></g>
<g><path style="opacity:1" fill="#1f1f1f" d="M 304.5,9.5 C 314.843,8.99916 318.676,13.6658 316,23.5C 311.275,28.314 306.275,28.6473 301,24.5C 298.092,18.3207 299.258,13.3207 304.5,9.5 Z"/></g>
<g><path style="opacity:0.776" fill="#858585" d="M 385.5,9.5 C 385.027,10.9063 384.027,11.573 382.5,11.5C 382.973,10.0937 383.973,9.42702 385.5,9.5 Z"/></g>
<g><path style="opacity:0.69" fill="#979797" d="M 403.5,10.5 C 404.906,10.9731 405.573,11.9731 405.5,13.5C 404.094,13.0269 403.427,12.0269 403.5,10.5 Z"/></g>
<g><path style="opacity:0.467" fill="#a0a0a0" d="M 395.5,14.5 C 396.715,15.779 396.382,16.779 394.5,17.5C 394.557,16.391 394.89,15.391 395.5,14.5 Z"/></g>
<g><path style="opacity:1" fill="#5ed090" d="M 219.5,22.5 C 219.5,26.5 219.5,30.5 219.5,34.5C 229.833,34.5 240.167,34.5 250.5,34.5C 252.28,35.9899 252.946,37.9899 252.5,40.5C 250.151,40.4583 248.818,41.6249 248.5,44C 251.136,52.2417 253.969,60.4084 257,68.5C 258.912,60.3511 260.746,52.1844 262.5,44C 262.576,41.2439 261.243,40.0772 258.5,40.5C 258.216,38.5853 258.549,36.9187 259.5,35.5C 265.744,34.5422 272.077,34.2088 278.5,34.5C 279.461,36.2646 279.795,38.2646 279.5,40.5C 277.089,40.1367 275.589,41.1367 275,43.5C 270.465,56.7713 266.132,70.1046 262,83.5C 259.861,89.6183 256.361,94.785 251.5,99C 246.193,100.944 240.86,100.944 235.5,99C 231.577,94.594 231.577,90.2606 235.5,86C 244.155,90.6778 249.822,88.1778 252.5,78.5C 250.076,78.8076 247.743,78.4742 245.5,77.5C 240.718,65.1141 235.384,53.1141 229.5,41.5C 226.167,41.5 222.833,41.5 219.5,41.5C 219.173,51.015 219.506,60.3483 220.5,69.5C 223.946,72.1594 227.28,71.8261 230.5,68.5C 234.195,75.2919 232.195,79.7919 224.5,82C 217.451,83.886 211.618,82.0527 207,76.5C 205.567,65.2436 205.067,53.9102 205.5,42.5C 203.5,42.5 201.5,42.5 199.5,42.5C 199.338,40.4727 199.505,38.4727 200,36.5C 206.042,32.0856 209.209,26.0856 209.5,18.5C 211.857,18.3367 214.19,18.5034 216.5,19C 218.426,19.4224 219.426,20.5891 219.5,22.5 Z"/></g>
<g><path style="opacity:0.489" fill="#b0e8c9" d="M 11.5,34.5 C 14.9841,33.8346 18.6508,33.5013 22.5,33.5C 26.5652,33.5112 30.2319,34.1778 33.5,35.5C 26.2537,34.536 18.9204,34.2027 11.5,34.5 Z"/></g>
<g><path style="opacity:1" fill="#60d192" d="M 76.5,32.5 C 95.6225,31.9534 102.623,40.7868 97.5,59C 89.6676,59.0333 82.0009,59.6999 74.5,61C 78.0738,72.1358 85.0738,74.6358 95.5,68.5C 98.2178,70.8031 98.7178,73.4698 97,76.5C 94.3741,79.2308 91.2074,81.0642 87.5,82C 69.077,84.5768 59.4103,76.5768 58.5,58C 58.2835,44.8828 64.2835,36.3828 76.5,32.5 Z M 79.5,39.5 C 81.1703,39.7512 82.6703,40.4178 84,41.5C 87.7333,50.4288 84.9,53.9288 75.5,52C 74.6294,47.2371 75.9628,43.0704 79.5,39.5 Z"/></g>
<g><path style="opacity:0.999" fill="#63d193" d="M 138.5,37.5 C 138.689,41.037 138.023,44.3703 136.5,47.5C 136.389,48.1174 136.056,48.6174 135.5,49C 129.031,51.2111 125.031,49.0444 123.5,42.5C 122.833,42.8333 122.167,43.1667 121.5,43.5C 120.334,53.8172 120.168,64.1506 121,74.5C 123.382,75.5541 125.882,76.2208 128.5,76.5C 128.714,78.1439 128.38,79.6439 127.5,81C 118.588,81.8163 109.755,81.6497 101,80.5C 100.372,77.7555 101.372,75.7555 104,74.5C 104.667,64.1667 104.667,53.8333 104,43.5C 102.644,42.6198 101.144,42.2865 99.5,42.5C 99.2011,40.396 99.5344,38.396 100.5,36.5C 105.956,33.8067 111.623,32.8067 117.5,33.5C 118.427,35.1128 119.261,36.7795 120,38.5C 124.389,32.7123 129.889,31.2123 136.5,34C 137.823,34.8159 138.489,35.9826 138.5,37.5 Z"/></g>
<g><path style="opacity:1" fill="#65d294" d="M 136.5,47.5 C 138.023,44.3703 138.689,41.037 138.5,37.5C 139.222,37.9175 139.722,38.5842 140,39.5C 144.461,34.4596 150.128,32.1263 157,32.5C 163.228,32.2706 168.561,34.2706 173,38.5C 176.182,48.6526 172.848,51.9859 163,48.5C 161.73,45.6869 161.23,42.8535 161.5,40C 157.474,38.6634 154.474,39.8301 152.5,43.5C 153.253,45.7534 154.586,47.5867 156.5,49C 162.933,51.9633 168.766,55.7966 174,60.5C 178.626,75.7351 172.793,83.0685 156.5,82.5C 150.018,82.9488 144.185,81.2821 139,77.5C 134.437,68.1443 137.27,63.9776 147.5,65C 149.943,67.4804 150.61,70.3138 149.5,73.5C 153.87,76.3844 157.87,75.8844 161.5,72C 160.547,70.0448 159.213,68.3782 157.5,67C 151.067,64.0367 145.234,60.2034 140,55.5C 138.522,52.8421 137.355,50.1755 136.5,47.5 Z"/></g>
<g><path style="opacity:0.999" fill="#60d091" d="M 186.5,32.5 C 189.187,32.3359 191.854,32.5026 194.5,33C 195.126,33.7504 195.626,34.5838 196,35.5C 196.333,48.5 196.667,61.5 197,74.5C 198.803,75.3134 200.303,76.4801 201.5,78C 201.265,78.8732 200.931,79.7065 200.5,80.5C 192.608,81.8138 184.775,81.8138 177,80.5C 176.219,79.0563 176.386,77.723 177.5,76.5C 179.134,76.032 180.3,75.032 181,73.5C 181.667,63.8333 181.667,54.1667 181,44.5C 179.826,42.3291 177.993,41.3291 175.5,41.5C 175.261,39.5328 175.594,37.6995 176.5,36C 179.98,34.8974 183.313,33.7308 186.5,32.5 Z"/></g>
<g><path style="opacity:0.496" fill="#b4e9cc" d="M 219.5,22.5 C 220.482,25.9619 220.815,29.6286 220.5,33.5C 230.681,33.1726 240.681,33.506 250.5,34.5C 240.167,34.5 229.833,34.5 219.5,34.5C 219.5,30.5 219.5,26.5 219.5,22.5 Z"/></g>
<g><path style="opacity:0.483" fill="#b0e8c9" d="M 278.5,34.5 C 272.077,34.2088 265.744,34.5422 259.5,35.5C 262.258,34.1818 265.424,33.5152 269,33.5C 272.352,33.5018 275.518,33.8351 278.5,34.5 Z"/></g>
<g><path style="opacity:1" fill="#161616" d="M 319.5,76.5 C 319.5,77.5 319.5,78.5 319.5,79.5C 316.062,80.8232 312.229,81.4898 308,81.5C 304.167,81.1667 300.333,80.8333 296.5,80.5C 296.069,79.7065 295.735,78.8732 295.5,78C 296.697,76.4801 298.197,75.3134 300,74.5C 300.667,64.1667 300.667,53.8333 300,43.5C 298.416,42.1387 296.582,41.472 294.5,41.5C 293.969,38.1124 295.303,36.1124 298.5,35.5C 301.152,35.5905 303.485,34.9238 305.5,33.5C 308.906,31.9162 312.072,32.2495 315,34.5C 315.333,47.8333 315.667,61.1667 316,74.5C 317.113,75.305 318.279,75.9717 319.5,76.5 Z"/></g>
<g><path style="opacity:1" fill="#191919" d="M 341.5,37.5 C 343.027,37.573 344.027,36.9063 344.5,35.5C 351.474,31.2892 358.307,31.6225 365,36.5C 365.973,38.3921 366.64,40.3921 367,42.5C 367.333,52.8333 367.667,63.1667 368,73.5C 368.278,74.4158 368.778,75.0825 369.5,75.5C 370.833,77.1667 370.833,78.8333 369.5,80.5C 364.928,82.558 360.262,82.8913 355.5,81.5C 355.027,80.0937 354.027,79.427 352.5,79.5C 351.688,67.909 351.188,56.2423 351,44.5C 348,41.8333 345,41.8333 342,44.5C 341.333,54.5 341.333,64.5 342,74.5C 344.628,75.7555 345.628,77.7555 345,80.5C 341.082,81.1508 337.082,81.4841 333,81.5C 328.771,81.4898 324.938,80.8232 321.5,79.5C 321.5,78.5 321.5,77.5 321.5,76.5C 322.721,75.9717 323.887,75.305 325,74.5C 325.667,64.1667 325.667,53.8333 325,43.5C 323.67,42.4178 322.17,41.7512 320.5,41.5C 320.366,39.7085 320.699,38.0418 321.5,36.5C 326.721,33.615 332.388,32.4483 338.5,33C 339.781,34.4087 340.781,35.9087 341.5,37.5 Z"/></g>
<g><path style="opacity:0.34" fill="#b3b3b3" d="M 391.5,33.5 C 394.833,33.5 398.167,33.5 401.5,33.5C 401.784,35.4147 401.451,37.0813 400.5,38.5C 400.5,37.1667 400.5,35.8333 400.5,34.5C 397.287,34.81 394.287,34.4767 391.5,33.5 Z"/></g>
<g><path style="opacity:1" fill="#191919" d="M 405.5,41.5 C 407.5,40.1667 409.167,38.5 410.5,36.5C 418.944,31.3642 427.611,31.1975 436.5,36C 445.092,44.942 447.592,55.442 444,67.5C 438.615,81.0863 428.781,85.9196 414.5,82C 406.714,79.2115 402.214,73.7115 401,65.5C 400.012,58.3321 400.678,51.3321 403,44.5C 403.377,43.0577 404.21,42.0577 405.5,41.5 Z M 421.5,39.5 C 424.148,39.7385 425.982,41.0718 427,43.5C 428.548,52.4377 428.881,61.4377 428,70.5C 427.224,74.9503 424.724,76.4503 420.5,75C 416.364,65.1638 415.531,54.9972 418,44.5C 418.997,42.6769 420.164,41.0103 421.5,39.5 Z"/></g>
<g><path style="opacity:1" fill="#62d192" d="M 11.5,34.5 C 18.9204,34.2027 26.2537,34.536 33.5,35.5C 34.5983,36.6009 34.765,37.9343 34,39.5C 32.3035,40.3636 31.1368,41.6969 30.5,43.5C 33.5045,52.0144 36.0045,60.6811 38,69.5C 41.592,60.4652 43.9254,51.1319 45,41.5C 41.5705,40.1223 40.7372,37.7889 42.5,34.5C 48.8072,33.3361 55.1405,33.1694 61.5,34C 62.5762,35.7261 62.7429,37.5594 62,39.5C 60,40.1667 58.6667,41.5 58,43.5C 54.0576,55.9952 49.7242,68.3285 45,80.5C 44.2496,81.1258 43.4162,81.6258 42.5,82C 37.8452,82.4992 33.1785,82.6658 28.5,82.5C 24.2995,69.7577 19.7995,57.091 15,44.5C 14,42.1667 12.3333,40.5 10,39.5C 9.40137,37.4652 9.90137,35.7985 11.5,34.5 Z"/></g>
<g><path style="opacity:0.906" fill="#6e6e6e" d="M 305.5,33.5 C 303.485,34.9238 301.152,35.5905 298.5,35.5C 300.515,34.0762 302.848,33.4095 305.5,33.5 Z"/></g>
<g><path style="opacity:0.765" fill="#848484" d="M 344.5,35.5 C 344.027,36.9063 343.027,37.573 341.5,37.5C 341.973,36.0937 342.973,35.427 344.5,35.5 Z"/></g>
<g><path style="opacity:0.469" fill="#8e8e8e" d="M 321.5,36.5 C 320.699,38.0418 320.366,39.7085 320.5,41.5C 319.861,40.9032 319.528,40.0698 319.5,39C 319.684,37.6244 320.351,36.7911 321.5,36.5 Z"/></g>
<g><path style="opacity:0.722" fill="#878787" d="M 410.5,36.5 C 409.167,38.5 407.5,40.1667 405.5,41.5C 406.167,38.8333 407.833,37.1667 410.5,36.5 Z"/></g>
<g><path style="opacity:0.697" fill="#696969" d="M 372.5,36.5 C 372.5,38.1667 372.5,39.8333 372.5,41.5C 374.415,41.2155 376.081,41.5489 377.5,42.5C 375.5,42.5 373.5,42.5 371.5,42.5C 371.205,40.2646 371.539,38.2646 372.5,36.5 Z"/></g>
<g><path style="opacity:0.695" fill="#939393" d="M 400.5,39.5 C 400.5,40.5 400.5,41.5 400.5,42.5C 397.833,42.5 395.167,42.5 392.5,42.5C 392.5,52.8333 392.5,63.1667 392.5,73.5C 391.506,63.0131 391.172,52.3464 391.5,41.5C 394.855,41.9086 397.855,41.2419 400.5,39.5 Z"/></g>
<g><path style="opacity:0.432" fill="#ade7c7" d="M 229.5,41.5 C 226.713,42.4767 223.713,42.81 220.5,42.5C 220.5,51.5 220.5,60.5 220.5,69.5C 219.506,60.3483 219.173,51.015 219.5,41.5C 222.833,41.5 226.167,41.5 229.5,41.5 Z"/></g>
<g><path style="opacity:1" fill="#1c1c1c" d="M 291.5,66.5 C 291.427,68.0269 292.094,69.0269 293.5,69.5C 296.494,77.2094 293.827,81.8761 285.5,83.5C 283.578,83.1992 281.912,82.5325 280.5,81.5C 280.027,80.0937 279.027,79.427 277.5,79.5C 273.758,71.0499 276.425,66.0499 285.5,64.5C 287.883,64.361 289.883,65.0277 291.5,66.5 Z"/></g>
<g><path style="opacity:0.82" fill="#808080" d="M 291.5,66.5 C 292.906,66.9731 293.573,67.9731 293.5,69.5C 292.094,69.0269 291.427,68.0269 291.5,66.5 Z"/></g>
<g><path style="opacity:0.584" fill="#a0a0a0" d="M 369.5,75.5 C 370.649,75.7911 371.316,76.6244 371.5,78C 371.316,79.3756 370.649,80.2089 369.5,80.5C 370.833,78.8333 370.833,77.1667 369.5,75.5 Z"/></g>
<g><path style="opacity:0.055" fill="#b7b7b7" d="M 319.5,76.5 C 320.167,76.5 320.833,76.5 321.5,76.5C 321.5,77.5 321.5,78.5 321.5,79.5C 320.833,79.5 320.167,79.5 319.5,79.5C 319.5,78.5 319.5,77.5 319.5,76.5 Z"/></g>
<g><path style="opacity:0.812" fill="#7e7e7e" d="M 277.5,79.5 C 279.027,79.427 280.027,80.0937 280.5,81.5C 278.973,81.573 277.973,80.9063 277.5,79.5 Z"/></g>
<g><path style="opacity:0.612" fill="#7d7d7d" d="M 352.5,79.5 C 354.027,79.427 355.027,80.0937 355.5,81.5C 353.973,81.573 352.973,80.9063 352.5,79.5 Z"/></g>
</svg>
