<?xml version="1.0" encoding="UTF-8"?>
<!DOCTYPE svg PUBLIC "-//W3C//DTD SVG 1.1//EN" "http://www.w3.org/Graphics/SVG/1.1/DTD/svg11.dtd">
<svg xmlns="http://www.w3.org/2000/svg" version="1.1" width="500px" height="500px" style="shape-rendering:geometricPrecision; text-rendering:geometricPrecision; image-rendering:optimizeQuality; fill-rule:evenodd; clip-rule:evenodd" xmlns:xlink="http://www.w3.org/1999/xlink">
<g><path style="opacity:1" fill="#080808" d="M 353.5,89.5 C 353.427,91.0269 354.094,92.0269 355.5,92.5C 358.521,95.8396 360.354,99.8396 361,104.5C 365.25,128.194 356.083,143.694 333.5,151C 326.654,151.821 319.987,151.654 313.5,150.5C 311.485,149.076 309.152,148.41 306.5,148.5C 303.669,147.921 301.336,146.588 299.5,144.5C 298.738,142.738 297.404,141.738 295.5,141.5C 287.603,133.979 283.936,124.646 284.5,113.5C 284.556,107.61 285.722,101.943 288,96.5C 288.792,93.8936 290.292,91.8936 292.5,90.5C 294.262,89.7377 295.262,88.4044 295.5,86.5C 297.027,86.573 298.027,85.9063 298.5,84.5C 301.701,81.0626 305.701,78.8959 310.5,78C 322.676,75.1437 334.343,76.4771 345.5,82C 348.666,84.0001 351.332,86.5001 353.5,89.5 Z"/></g>
<g><path style="opacity:0.745" fill="#888888" d="M 298.5,84.5 C 298.027,85.9063 297.027,86.573 295.5,86.5C 295.973,85.0937 296.973,84.427 298.5,84.5 Z"/></g>
<g><path style="opacity:0.843" fill="#808080" d="M 295.5,86.5 C 295.262,88.4044 294.262,89.7377 292.5,90.5C 292.738,88.5956 293.738,87.2623 295.5,86.5 Z"/></g>
<g><path style="opacity:0.808" fill="#818181" d="M 353.5,89.5 C 354.906,89.9731 355.573,90.9731 355.5,92.5C 354.094,92.0269 353.427,91.0269 353.5,89.5 Z"/></g>
<g><path style="opacity:0.886" fill="#777777" d="M 295.5,141.5 C 297.404,141.738 298.738,142.738 299.5,144.5C 297.596,144.262 296.262,143.262 295.5,141.5 Z"/></g>
<g><path style="opacity:0.961" fill="#656565" d="M 306.5,148.5 C 309.152,148.41 311.485,149.076 313.5,150.5C 310.848,150.59 308.515,149.924 306.5,148.5 Z"/></g>
<g><path style="opacity:1" fill="#54ce8b" d="M 268.5,380.5 C 252.089,380.818 235.756,380.484 219.5,379.5C 199.445,326.364 179.612,273.031 160,219.5C 157.921,215.007 155.588,210.674 153,206.5C 149.369,202.603 144.869,200.77 139.5,201C 138.039,192.513 140.039,184.846 145.5,178C 174.833,177.333 204.167,177.333 233.5,178C 239.617,184.627 242.284,192.46 241.5,201.5C 228.577,201.93 223.077,208.597 225,221.5C 237.014,260.544 248.014,299.877 258,339.5C 269.166,298.667 280.333,257.834 291.5,217C 289.983,205.801 283.483,200.301 272,200.5C 271.146,192.12 273.313,184.62 278.5,178C 303.5,177.333 328.5,177.333 353.5,178C 358.938,184.508 361.105,192.008 360,200.5C 351.337,200.833 345.004,204.833 341,212.5C 325.337,260.156 309.67,307.822 294,355.5C 290.554,366.59 283.721,374.757 273.5,380C 271.866,380.494 270.199,380.66 268.5,380.5 Z"/></g>
<g><path style="opacity:0.784" fill="#87dcad" d="M 219.5,379.5 C 235.756,380.484 252.089,380.818 268.5,380.5C 260.507,381.166 252.34,381.5 244,381.5C 235.472,381.498 227.305,380.831 219.5,379.5 Z"/></g>
</svg>
